<svg width="311" height="49" viewBox="0 0 311 49" fill="none" xmlns="http://www.w3.org/2000/svg">
<path d="M24.5526 49C38.1127 49 49.1053 38.031 49.1053 24.5C49.1053 10.969 38.1127 0 24.5526 0C10.9926 0 0 10.969 0 24.5C0 38.031 10.9926 49 24.5526 49Z" fill="#0029FF"/>
<path d="M13.9132 26.1334C15.2692 26.1334 16.3684 25.0365 16.3684 23.6834C16.3684 22.3303 15.2692 21.2334 13.9132 21.2334C12.5572 21.2334 11.4579 22.3303 11.4579 23.6834C11.4579 25.0365 12.5572 26.1334 13.9132 26.1334Z" fill="white"/>
<path opacity="0.1" d="M15.55 19.6002C16.906 19.6002 18.0053 18.5033 18.0053 17.1502C18.0053 15.7971 16.906 14.7002 15.55 14.7002C14.194 14.7002 13.0948 15.7971 13.0948 17.1502C13.0948 18.5033 14.194 19.6002 15.55 19.6002Z" fill="white"/>
<path opacity="0.1" d="M15.55 32.6666C16.906 32.6666 18.0053 31.5697 18.0053 30.2166C18.0053 28.8635 16.906 27.7666 15.55 27.7666C14.194 27.7666 13.0948 28.8635 13.0948 30.2166C13.0948 31.5697 14.194 32.6666 15.55 32.6666Z" fill="white"/>
<path opacity="0.1" d="M35.1926 32.6666C36.5486 32.6666 37.6478 31.5697 37.6478 30.2166C37.6478 28.8635 36.5486 27.7666 35.1926 27.7666C33.8366 27.7666 32.7373 28.8635 32.7373 30.2166C32.7373 31.5697 33.8366 32.6666 35.1926 32.6666Z" fill="white"/>
<path opacity="0.1" d="M35.1926 19.6002C36.5486 19.6002 37.6478 18.5033 37.6478 17.1502C37.6478 15.7971 36.5486 14.7002 35.1926 14.7002C33.8366 14.7002 32.7373 15.7971 32.7373 17.1502C32.7373 18.5033 33.8366 19.6002 35.1926 19.6002Z" fill="white"/>
<path d="M20.4601 37.567C21.8162 37.567 22.9154 36.4701 22.9154 35.117C22.9154 33.7639 21.8162 32.667 20.4601 32.667C19.1041 32.667 18.0049 33.7639 18.0049 35.117C18.0049 36.4701 19.1041 37.567 20.4601 37.567Z" fill="white"/>
<path d="M30.2814 37.567C31.6374 37.567 32.7367 36.4701 32.7367 35.117C32.7367 33.7639 31.6374 32.667 30.2814 32.667C28.9254 32.667 27.8262 33.7639 27.8262 35.117C27.8262 36.4701 28.9254 37.567 30.2814 37.567Z" fill="white"/>
<path d="M36.8293 26.1334C38.1853 26.1334 39.2845 25.0365 39.2845 23.6834C39.2845 22.3303 38.1853 21.2334 36.8293 21.2334C35.4733 21.2334 34.374 22.3303 34.374 23.6834C34.374 25.0365 35.4733 26.1334 36.8293 26.1334Z" fill="white"/>
<path d="M25.371 26.1334C26.7271 26.1334 27.8263 25.0365 27.8263 23.6834C27.8263 22.3303 26.7271 21.2334 25.371 21.2334C24.015 21.2334 22.9158 22.3303 22.9158 23.6834C22.9158 25.0365 24.015 26.1334 25.371 26.1334Z" fill="white"/>
<path d="M30.2816 14.6998C31.6376 14.6998 32.7369 13.6029 32.7369 12.2498C32.7369 10.8967 31.6376 9.7998 30.2816 9.7998C28.9256 9.7998 27.8263 10.8967 27.8263 12.2498C27.8263 13.6029 28.9256 14.6998 30.2816 14.6998Z" fill="white"/>
<path d="M20.4601 14.6998C21.8162 14.6998 22.9154 13.6029 22.9154 12.2498C22.9154 10.8967 21.8162 9.7998 20.4601 9.7998C19.1041 9.7998 18.0049 10.8967 18.0049 12.2498C18.0049 13.6029 19.1041 14.6998 20.4601 14.6998Z" fill="white"/>
<path d="M13.9131 23.6836H25.371L30.2815 35.1169H20.4605" stroke="white"/>
<path d="M20.4609 12.25H30.282" stroke="white"/>
<path d="M75.098 13.1645H67.9941V35.9332H75.098C82.5948 35.9332 87.2107 31.6538 87.2107 24.5978C87.2107 17.5418 82.5948 13.1645 75.098 13.1645ZM70.9732 33.4832V15.5818H75.098C81.0561 15.5818 84.1661 19.0445 84.1661 24.5978C84.1661 30.1512 81.0561 33.4832 75.098 33.4832H70.9732ZM103.416 13.1318H91.1401V35.9332H103.416V33.4832H94.1191V25.6432H102.434V23.1932H94.1191V15.5818H103.416V13.1318ZM120.2 13.1318H107.924V35.9332H120.2V33.4832H110.903V25.6432H119.218V23.1932H110.903V15.5818H120.2V13.1318ZM127.687 23.9772V15.6145H132.074C135.479 15.6145 136.919 17.1825 136.919 19.8285C136.919 22.3765 135.479 23.9772 132.074 23.9772H127.687ZM139.963 19.8285C139.963 16.1045 137.443 13.1645 132.074 13.1645H124.708V35.9332H127.687V26.4272H132.074C137.737 26.4272 139.963 23.2912 139.963 19.8285Z" fill="black"/>
<path d="M150.659 17.4768H156.748V35.9335H162.346V17.4768H168.436V13.0015H150.659V17.4768ZM185.551 35.9335H191.149V13.0015H185.551V21.9848H176.843V13.0015H171.245V35.9335H176.843V26.4928H185.551V35.9335ZM217.811 24.4021C217.811 17.5095 212.606 12.6748 206.059 12.6748C199.544 12.6748 194.241 17.5095 194.241 24.4021C194.241 31.2948 199.544 36.1621 206.059 36.1621C212.573 36.1621 217.811 31.2948 217.811 24.4021ZM199.97 24.4021C199.97 20.3188 202.327 17.7381 206.059 17.7381C209.725 17.7381 212.115 20.3188 212.115 24.4021C212.115 28.4201 209.725 31.0661 206.059 31.0661C202.327 31.0661 199.97 28.4201 199.97 24.4021ZM220.826 26.6888C220.826 33.0261 224.984 36.1621 230.32 36.1621C235.623 36.1621 240.076 33.0261 240.076 26.6888V13.0015H234.478V26.7215C234.478 29.4328 233.07 31.0008 230.418 31.0008C227.767 31.0008 226.424 29.4328 226.424 26.7215V13.0015H220.826V26.6888ZM254.745 12.7401C247.87 12.7401 243.058 17.5748 243.058 24.4348C243.058 31.2948 247.903 36.0968 254.778 36.0968C260.834 36.0968 264.664 32.1441 265.843 28.1915V22.9975H253.665V27.1135H260.769C259.917 29.6941 257.986 31.1641 255.203 31.1641C251.177 31.1641 248.754 28.6815 248.754 24.4348C248.754 20.4495 251.144 17.9015 254.745 17.9015C256.84 17.9015 258.411 18.7181 259.263 20.2535H265.45C264.239 15.5495 260.245 12.7401 254.745 12.7401ZM283.249 35.9335H288.847V13.0015H283.249V21.9848H274.541V13.0015H268.943V35.9335H274.541V26.4928H283.249V35.9335ZM291.644 17.4768H297.733V35.9335H303.331V17.4768H309.42V13.0015H291.644V17.4768Z" fill="#0029FF"/>
</svg>
