<svg width="32" height="34" viewBox="0 0 32 34" fill="none" xmlns="http://www.w3.org/2000/svg">
<path d="M15.576 0.433594C6.98751 0.433594 0 7.94002 0 17.1664C0 26.3928 6.98751 33.8992 15.576 33.8992C24.1646 33.8992 31.1521 26.3928 31.1521 17.1664C31.1521 7.94002 24.1646 0.433594 15.576 0.433594ZM15.576 27.4635C14.011 27.4635 12.7664 26.7507 12.5994 25.2448C12.595 25.1998 12.5994 25.1543 12.6125 25.1113C12.6255 25.0682 12.6469 25.0286 12.6752 24.9951C12.7034 24.9615 12.738 24.9347 12.7765 24.9165C12.8151 24.8983 12.8568 24.889 12.8989 24.8892H18.2494C18.292 24.8889 18.3341 24.8983 18.373 24.9168C18.4119 24.9354 18.4467 24.9626 18.475 24.9967C18.5034 25.0308 18.5246 25.071 18.5374 25.1146C18.5501 25.1582 18.5541 25.2042 18.549 25.2496C18.358 26.7274 17.1247 27.4635 15.576 27.4635ZM22.9148 23.6021H8.23733C7.3507 23.6021 6.88941 22.3954 7.39937 21.7518C8.62224 20.196 9.48641 19.542 9.48641 15.2518C9.48641 11.3204 11.4139 9.92543 13.006 9.24486C13.1156 9.19581 13.2143 9.12265 13.296 9.03009C13.3776 8.93754 13.4403 8.82764 13.48 8.70748C13.7563 7.72201 14.5381 6.86928 15.576 6.86928C16.614 6.86928 17.3943 7.72201 17.6728 8.70828C17.7128 8.82843 17.7756 8.93829 17.8574 9.03082C17.9392 9.12336 18.038 9.19653 18.1476 9.24566C19.7359 9.92463 21.6672 11.322 21.6672 15.2526C21.6672 19.5428 22.5306 20.1968 23.7535 21.7526C24.2582 22.3954 23.7962 23.6021 22.9148 23.6021Z" fill="#3683F0"/>
</svg>
